<mxfile host="app.diagrams.net" agent="Mozilla/5.0 (Windows NT 10.0; Win64; x64) AppleWebKit/537.36 (KHTML, like Gecko) Chrome/101.0.0.0 Safari/537.36" version="24.7.8">
  <diagram id="C5RBs43oDa-KdzZeNtuy" name="Page-1">
    <mxGraphModel dx="1434" dy="884" grid="1" gridSize="10" guides="1" tooltips="1" connect="1" arrows="1" fold="1" page="1" pageScale="1" pageWidth="827" pageHeight="1169" math="0" shadow="0">
      <root>
        <mxCell id="WIyWlLk6GJQsqaUBKTNV-0" />
        <mxCell id="WIyWlLk6GJQsqaUBKTNV-1" parent="WIyWlLk6GJQsqaUBKTNV-0" />
        <mxCell id="Tcn8zoHBLTSC646CAFs7-88" value="" style="shape=ext;double=1;rounded=1;whiteSpace=wrap;html=1;" vertex="1" parent="WIyWlLk6GJQsqaUBKTNV-1">
          <mxGeometry x="744" y="600" width="120" height="80" as="geometry" />
        </mxCell>
        <mxCell id="Tcn8zoHBLTSC646CAFs7-86" value="" style="shape=ext;double=1;rounded=1;whiteSpace=wrap;html=1;" vertex="1" parent="WIyWlLk6GJQsqaUBKTNV-1">
          <mxGeometry x="830" y="670" width="160" height="310" as="geometry" />
        </mxCell>
        <mxCell id="Tcn8zoHBLTSC646CAFs7-85" value="" style="shape=ext;double=1;rounded=1;whiteSpace=wrap;html=1;" vertex="1" parent="WIyWlLk6GJQsqaUBKTNV-1">
          <mxGeometry x="826" y="677" width="154" height="313" as="geometry" />
        </mxCell>
        <mxCell id="Tcn8zoHBLTSC646CAFs7-84" value="" style="shape=ext;double=1;rounded=1;whiteSpace=wrap;html=1;" vertex="1" parent="WIyWlLk6GJQsqaUBKTNV-1">
          <mxGeometry x="827" y="700" width="143" height="280" as="geometry" />
        </mxCell>
        <mxCell id="Tcn8zoHBLTSC646CAFs7-48" value="" style="shape=ext;double=1;rounded=1;whiteSpace=wrap;html=1;" vertex="1" parent="WIyWlLk6GJQsqaUBKTNV-1">
          <mxGeometry x="50" y="10" width="950" height="390" as="geometry" />
        </mxCell>
        <mxCell id="Tcn8zoHBLTSC646CAFs7-45" value="" style="shape=ext;double=1;rounded=1;whiteSpace=wrap;html=1;" vertex="1" parent="WIyWlLk6GJQsqaUBKTNV-1">
          <mxGeometry x="60" y="400" width="950" height="620" as="geometry" />
        </mxCell>
        <mxCell id="Tcn8zoHBLTSC646CAFs7-41" value="" style="shape=ext;double=1;rounded=1;whiteSpace=wrap;html=1;" vertex="1" parent="WIyWlLk6GJQsqaUBKTNV-1">
          <mxGeometry x="350" y="806" width="400" height="174" as="geometry" />
        </mxCell>
        <mxCell id="Tcn8zoHBLTSC646CAFs7-0" value="sysmonitor" style="shape=cylinder3;whiteSpace=wrap;html=1;boundedLbl=1;backgroundOutline=1;size=15;" vertex="1" parent="WIyWlLk6GJQsqaUBKTNV-1">
          <mxGeometry x="140" y="90" width="330" height="60" as="geometry" />
        </mxCell>
        <mxCell id="Tcn8zoHBLTSC646CAFs7-2" value="cpu" style="shape=cylinder3;whiteSpace=wrap;html=1;boundedLbl=1;backgroundOutline=1;size=15;" vertex="1" parent="WIyWlLk6GJQsqaUBKTNV-1">
          <mxGeometry x="140" y="151" width="70" height="50" as="geometry" />
        </mxCell>
        <mxCell id="Tcn8zoHBLTSC646CAFs7-3" value="mem" style="shape=cylinder3;whiteSpace=wrap;html=1;boundedLbl=1;backgroundOutline=1;size=15;" vertex="1" parent="WIyWlLk6GJQsqaUBKTNV-1">
          <mxGeometry x="226" y="151" width="70" height="50" as="geometry" />
        </mxCell>
        <mxCell id="Tcn8zoHBLTSC646CAFs7-4" value="..." style="shape=cylinder3;whiteSpace=wrap;html=1;boundedLbl=1;backgroundOutline=1;size=15;" vertex="1" parent="WIyWlLk6GJQsqaUBKTNV-1">
          <mxGeometry x="400" y="151" width="70" height="50" as="geometry" />
        </mxCell>
        <mxCell id="Tcn8zoHBLTSC646CAFs7-5" value="disk" style="shape=cylinder3;whiteSpace=wrap;html=1;boundedLbl=1;backgroundOutline=1;size=15;" vertex="1" parent="WIyWlLk6GJQsqaUBKTNV-1">
          <mxGeometry x="311" y="151" width="70" height="50" as="geometry" />
        </mxCell>
        <mxCell id="Tcn8zoHBLTSC646CAFs7-7" value="" style="curved=1;endArrow=classic;html=1;rounded=0;" edge="1" parent="WIyWlLk6GJQsqaUBKTNV-1">
          <mxGeometry width="50" height="50" relative="1" as="geometry">
            <mxPoint x="260" y="50" as="sourcePoint" />
            <mxPoint x="260" y="40" as="targetPoint" />
            <Array as="points">
              <mxPoint x="280" y="90" />
              <mxPoint x="370" y="70" />
              <mxPoint x="340" y="10" />
              <mxPoint x="280" y="20" />
            </Array>
          </mxGeometry>
        </mxCell>
        <mxCell id="Tcn8zoHBLTSC646CAFs7-79" value="" style="edgeStyle=orthogonalEdgeStyle;rounded=0;orthogonalLoop=1;jettySize=auto;html=1;" edge="1" parent="WIyWlLk6GJQsqaUBKTNV-1" source="Tcn8zoHBLTSC646CAFs7-9" target="Tcn8zoHBLTSC646CAFs7-12">
          <mxGeometry relative="1" as="geometry" />
        </mxCell>
        <mxCell id="Tcn8zoHBLTSC646CAFs7-9" value="监控系统资源" style="rounded=1;whiteSpace=wrap;html=1;fontSize=12;glass=0;strokeWidth=1;shadow=0;" vertex="1" parent="WIyWlLk6GJQsqaUBKTNV-1">
          <mxGeometry x="204" y="230" width="164" height="40" as="geometry" />
        </mxCell>
        <mxCell id="Tcn8zoHBLTSC646CAFs7-11" value="NO" style="edgeStyle=orthogonalEdgeStyle;rounded=0;html=1;jettySize=auto;orthogonalLoop=1;fontSize=11;endArrow=block;endFill=0;endSize=8;strokeWidth=1;shadow=0;labelBackgroundColor=none;entryX=0;entryY=0.5;entryDx=0;entryDy=0;" edge="1" parent="WIyWlLk6GJQsqaUBKTNV-1" source="Tcn8zoHBLTSC646CAFs7-12" target="Tcn8zoHBLTSC646CAFs7-9">
          <mxGeometry x="0.1721" y="18" relative="1" as="geometry">
            <mxPoint as="offset" />
            <mxPoint x="420" y="250" as="targetPoint" />
            <Array as="points">
              <mxPoint x="160" y="355" />
              <mxPoint x="160" y="250" />
            </Array>
          </mxGeometry>
        </mxCell>
        <mxCell id="Tcn8zoHBLTSC646CAFs7-54" value="" style="edgeStyle=orthogonalEdgeStyle;rounded=0;orthogonalLoop=1;jettySize=auto;html=1;entryX=0.5;entryY=0;entryDx=0;entryDy=0;" edge="1" parent="WIyWlLk6GJQsqaUBKTNV-1" source="Tcn8zoHBLTSC646CAFs7-12" target="Tcn8zoHBLTSC646CAFs7-23">
          <mxGeometry relative="1" as="geometry">
            <mxPoint x="285" y="491" as="targetPoint" />
          </mxGeometry>
        </mxCell>
        <mxCell id="Tcn8zoHBLTSC646CAFs7-12" value="异常？" style="rhombus;whiteSpace=wrap;html=1;shadow=0;fontFamily=Helvetica;fontSize=12;align=center;strokeWidth=1;spacing=6;spacingTop=-4;" vertex="1" parent="WIyWlLk6GJQsqaUBKTNV-1">
          <mxGeometry x="236" y="329" width="100" height="51" as="geometry" />
        </mxCell>
        <mxCell id="Tcn8zoHBLTSC646CAFs7-56" value="" style="edgeStyle=orthogonalEdgeStyle;rounded=0;orthogonalLoop=1;jettySize=auto;html=1;" edge="1" parent="WIyWlLk6GJQsqaUBKTNV-1">
          <mxGeometry relative="1" as="geometry">
            <mxPoint x="286" y="452" as="sourcePoint" />
            <mxPoint x="286" y="507" as="targetPoint" />
          </mxGeometry>
        </mxCell>
        <mxCell id="Tcn8zoHBLTSC646CAFs7-23" value="告警/恢复" style="rounded=1;whiteSpace=wrap;html=1;fontSize=12;glass=0;strokeWidth=1;shadow=0;" vertex="1" parent="WIyWlLk6GJQsqaUBKTNV-1">
          <mxGeometry x="241" y="450" width="90" height="30" as="geometry" />
        </mxCell>
        <mxCell id="Tcn8zoHBLTSC646CAFs7-24" value="异常处理任务入队" style="whiteSpace=wrap;html=1;rounded=1;glass=0;strokeWidth=1;shadow=0;" vertex="1" parent="WIyWlLk6GJQsqaUBKTNV-1">
          <mxGeometry x="233" y="608" width="112" height="32" as="geometry" />
        </mxCell>
        <mxCell id="Tcn8zoHBLTSC646CAFs7-27" value="&lt;b&gt;n#task&amp;nbsp; &amp;nbsp; &amp;nbsp;...&amp;nbsp; &amp;nbsp; &amp;nbsp;2#task&amp;nbsp; &amp;nbsp; &amp;nbsp; &amp;nbsp;1#task&lt;/b&gt;" style="strokeWidth=2;html=1;shape=mxgraph.flowchart.direct_data;whiteSpace=wrap;" vertex="1" parent="WIyWlLk6GJQsqaUBKTNV-1">
          <mxGeometry x="266" y="690" width="304" height="54" as="geometry" />
        </mxCell>
        <mxCell id="Tcn8zoHBLTSC646CAFs7-28" value="1#工作线程" style="shape=cylinder3;whiteSpace=wrap;html=1;boundedLbl=1;backgroundOutline=1;size=15;" vertex="1" parent="WIyWlLk6GJQsqaUBKTNV-1">
          <mxGeometry x="380" y="822" width="66" height="80" as="geometry" />
        </mxCell>
        <mxCell id="Tcn8zoHBLTSC646CAFs7-30" value="2#工作线程" style="shape=cylinder3;whiteSpace=wrap;html=1;boundedLbl=1;backgroundOutline=1;size=15;" vertex="1" parent="WIyWlLk6GJQsqaUBKTNV-1">
          <mxGeometry x="484" y="821" width="64" height="80" as="geometry" />
        </mxCell>
        <mxCell id="Tcn8zoHBLTSC646CAFs7-31" value="&lt;font style=&quot;font-size: 14px;&quot;&gt;&lt;b&gt;...&lt;/b&gt;&lt;/font&gt;" style="shape=cylinder3;whiteSpace=wrap;html=1;boundedLbl=1;backgroundOutline=1;size=15;" vertex="1" parent="WIyWlLk6GJQsqaUBKTNV-1">
          <mxGeometry x="580" y="822" width="64" height="80" as="geometry" />
        </mxCell>
        <mxCell id="Tcn8zoHBLTSC646CAFs7-32" value="n#工作线程" style="shape=cylinder3;whiteSpace=wrap;html=1;boundedLbl=1;backgroundOutline=1;size=15;" vertex="1" parent="WIyWlLk6GJQsqaUBKTNV-1">
          <mxGeometry x="680" y="821" width="64" height="80" as="geometry" />
        </mxCell>
        <mxCell id="Tcn8zoHBLTSC646CAFs7-37" value="" style="shape=singleArrow;direction=south;whiteSpace=wrap;html=1;" vertex="1" parent="WIyWlLk6GJQsqaUBKTNV-1">
          <mxGeometry x="529" y="745" width="24" height="60" as="geometry" />
        </mxCell>
        <mxCell id="Tcn8zoHBLTSC646CAFs7-40" value="&lt;h1 style=&quot;margin-top: 0px;&quot;&gt;&lt;span style=&quot;font-size: 14px;&quot;&gt;任务队列，FIFO&lt;/span&gt;&lt;/h1&gt;" style="text;html=1;whiteSpace=wrap;overflow=hidden;rounded=0;" vertex="1" parent="WIyWlLk6GJQsqaUBKTNV-1">
          <mxGeometry x="357" y="655" width="142" height="30" as="geometry" />
        </mxCell>
        <mxCell id="Tcn8zoHBLTSC646CAFs7-42" value="&lt;h1 style=&quot;margin-top: 0px;&quot;&gt;&lt;span style=&quot;font-weight: normal;&quot;&gt;&lt;font style=&quot;font-size: 12px;&quot;&gt;线程池：空闲线程从FIFO中取出任务并执行。执行过程更新任务状态&lt;br&gt;多个线程空闲则由操作系统调度，没有任务则挂起线程&lt;/font&gt;&lt;/span&gt;&lt;/h1&gt;" style="text;html=1;whiteSpace=wrap;overflow=hidden;rounded=0;" vertex="1" parent="WIyWlLk6GJQsqaUBKTNV-1">
          <mxGeometry x="368" y="910" width="443" height="73" as="geometry" />
        </mxCell>
        <mxCell id="Tcn8zoHBLTSC646CAFs7-47" value="&lt;h1 style=&quot;margin-top: 0px;&quot;&gt;&lt;font style=&quot;font-size: 24px;&quot;&gt;libexception&lt;/font&gt;&lt;/h1&gt;" style="text;html=1;whiteSpace=wrap;overflow=hidden;rounded=0;" vertex="1" parent="WIyWlLk6GJQsqaUBKTNV-1">
          <mxGeometry x="68" y="440" width="142" height="30" as="geometry" />
        </mxCell>
        <mxCell id="Tcn8zoHBLTSC646CAFs7-49" value="&lt;h1 style=&quot;margin-top: 0px;&quot;&gt;&lt;font style=&quot;font-size: 24px;&quot;&gt;sysmonitor&lt;/font&gt;&lt;/h1&gt;" style="text;html=1;whiteSpace=wrap;overflow=hidden;rounded=0;" vertex="1" parent="WIyWlLk6GJQsqaUBKTNV-1">
          <mxGeometry x="68" y="40" width="142" height="30" as="geometry" />
        </mxCell>
        <mxCell id="Tcn8zoHBLTSC646CAFs7-59" value="" style="edgeStyle=orthogonalEdgeStyle;rounded=0;orthogonalLoop=1;jettySize=auto;html=1;" edge="1" parent="WIyWlLk6GJQsqaUBKTNV-1" source="Tcn8zoHBLTSC646CAFs7-55" target="Tcn8zoHBLTSC646CAFs7-58">
          <mxGeometry relative="1" as="geometry" />
        </mxCell>
        <mxCell id="Tcn8zoHBLTSC646CAFs7-66" value="" style="edgeStyle=orthogonalEdgeStyle;rounded=0;orthogonalLoop=1;jettySize=auto;html=1;" edge="1" parent="WIyWlLk6GJQsqaUBKTNV-1">
          <mxGeometry relative="1" as="geometry">
            <mxPoint x="286" y="538" as="sourcePoint" />
            <mxPoint x="286.5" y="608" as="targetPoint" />
          </mxGeometry>
        </mxCell>
        <mxCell id="Tcn8zoHBLTSC646CAFs7-55" value="任务执行模式" style="rhombus;whiteSpace=wrap;html=1;rounded=1;glass=0;strokeWidth=1;shadow=0;" vertex="1" parent="WIyWlLk6GJQsqaUBKTNV-1">
          <mxGeometry x="231" y="506" width="110" height="64" as="geometry" />
        </mxCell>
        <mxCell id="Tcn8zoHBLTSC646CAFs7-58" value="执行任务" style="whiteSpace=wrap;html=1;rounded=1;glass=0;strokeWidth=1;shadow=0;" vertex="1" parent="WIyWlLk6GJQsqaUBKTNV-1">
          <mxGeometry x="415" y="517" width="75" height="42" as="geometry" />
        </mxCell>
        <mxCell id="Tcn8zoHBLTSC646CAFs7-62" value="" style="shape=singleArrow;direction=south;whiteSpace=wrap;html=1;" vertex="1" parent="WIyWlLk6GJQsqaUBKTNV-1">
          <mxGeometry x="276" y="640" width="21" height="50" as="geometry" />
        </mxCell>
        <mxCell id="Tcn8zoHBLTSC646CAFs7-63" value="同步" style="text;html=1;align=center;verticalAlign=middle;whiteSpace=wrap;rounded=0;" vertex="1" parent="WIyWlLk6GJQsqaUBKTNV-1">
          <mxGeometry x="345" y="517" width="60" height="30" as="geometry" />
        </mxCell>
        <mxCell id="Tcn8zoHBLTSC646CAFs7-64" value="异步通知" style="text;html=1;align=center;verticalAlign=middle;whiteSpace=wrap;rounded=0;" vertex="1" parent="WIyWlLk6GJQsqaUBKTNV-1">
          <mxGeometry x="290" y="570" width="60" height="30" as="geometry" />
        </mxCell>
        <mxCell id="Tcn8zoHBLTSC646CAFs7-65" value="&lt;font style=&quot;font-size: 11px;&quot;&gt;YES&lt;/font&gt;" style="text;html=1;align=center;verticalAlign=middle;whiteSpace=wrap;rounded=0;" vertex="1" parent="WIyWlLk6GJQsqaUBKTNV-1">
          <mxGeometry x="271" y="400" width="60" height="30" as="geometry" />
        </mxCell>
        <mxCell id="Tcn8zoHBLTSC646CAFs7-74" value="2# 任务状态" style="rounded=1;whiteSpace=wrap;html=1;strokeWidth=2;" vertex="1" parent="WIyWlLk6GJQsqaUBKTNV-1">
          <mxGeometry x="848" y="768" width="109" height="50" as="geometry" />
        </mxCell>
        <mxCell id="Tcn8zoHBLTSC646CAFs7-75" value="1# 任务状态" style="rounded=1;whiteSpace=wrap;html=1;strokeWidth=2;" vertex="1" parent="WIyWlLk6GJQsqaUBKTNV-1">
          <mxGeometry x="848" y="718" width="109" height="50" as="geometry" />
        </mxCell>
        <mxCell id="Tcn8zoHBLTSC646CAFs7-76" value="..." style="rounded=1;whiteSpace=wrap;html=1;strokeWidth=2;" vertex="1" parent="WIyWlLk6GJQsqaUBKTNV-1">
          <mxGeometry x="848" y="818" width="109" height="50" as="geometry" />
        </mxCell>
        <mxCell id="Tcn8zoHBLTSC646CAFs7-77" value="n# 任务状态" style="rounded=1;whiteSpace=wrap;html=1;strokeWidth=2;" vertex="1" parent="WIyWlLk6GJQsqaUBKTNV-1">
          <mxGeometry x="848" y="868" width="109" height="50" as="geometry" />
        </mxCell>
        <mxCell id="Tcn8zoHBLTSC646CAFs7-80" value="&lt;b&gt;获取任务状态&lt;/b&gt;" style="text;html=1;align=center;verticalAlign=middle;whiteSpace=wrap;rounded=0;" vertex="1" parent="WIyWlLk6GJQsqaUBKTNV-1">
          <mxGeometry x="564" y="250" width="80" height="30" as="geometry" />
        </mxCell>
        <mxCell id="Tcn8zoHBLTSC646CAFs7-81" value="新任务状态" style="rounded=1;whiteSpace=wrap;html=1;dashed=1;dashPattern=12 12;strokeWidth=1;" vertex="1" parent="WIyWlLk6GJQsqaUBKTNV-1">
          <mxGeometry x="848" y="919" width="109" height="50" as="geometry" />
        </mxCell>
      </root>
    </mxGraphModel>
  </diagram>
</mxfile>
